<svg xmlns="http://www.w3.org/2000/svg" xmlns:xlink="http://www.w3.org/1999/xlink" version="1.1" x="0px" y="0px" viewBox="0 0 68 68" enable-background="new 0 0 68 68" xml:space="preserve"><g><path d="M8.48294,62.50357H1.45039c-0.29389,0-0.53359-0.23918-0.53359-0.53359v-27.9494c0-0.29441,0.2397-0.53359,0.53359-0.53359   h7.03255c0.29389,0,0.53359,0.23918,0.53359,0.53359v3.78196c-0.0002,0.00821-0.00417,0.01577-0.00417,0.02404v21.94599   c0,0.00716,0.00404,0.01361,0.00417,0.02078v2.17664C9.01653,62.26439,8.77683,62.50357,8.48294,62.50357z M66.25973,43.07963   L51.13161,53.17355c-3.70258,2.9166-7.13297,2.69416-10.03087,3.41518c-7.87358,1.45487-10.96778,1.83682-19.31034,1.95615   l-10.6395,0.14584V38.21908c1.56768-1.71736,4.05221-2.69518,6.88457-2.69518c6.71114,0,7.31278,3.98421,10.42169,3.98421h11.49199   c1.98325,0,3.59757,1.61328,3.59757,3.59653c0,2.43771-2.09368,3.22848-2.20041,3.31996l-10.93196,0.58817   c-1.41013,0.07612-1.29617,2.20549,0.11464,2.13124c11.54495-0.66835,11.05527-0.48924,11.49545-0.73369   c0.52147-0.11759,16.7845-6.58484,21.42041-9.21642c1.03384-0.5857,2.3699-0.3288,3.15881,0.69773   C67.37173,40.90045,67.1883,42.35115,66.25973,43.07963z"/><g><path d="M66.54149,16.4987c0,2.94-1.15002,5.70001-3.22003,7.76996L49.17149,38.41869    c-0.18005,0.17999-0.44,0.28998-0.70001,0.28998c-0.27002,0-0.52002-0.10999-0.71002-0.28998L33.62144,24.26866    c-4.28998-4.27997-4.28998-11.25995,0-15.54999c4.09652-4.11621,10.59662-4.23746,14.85004-0.64996    c4.21685-3.57484,10.71643-3.48346,14.84998,0.64996C65.39146,10.79869,66.54149,13.5587,66.54149,16.4987z"/></g></g></svg>