<svg xmlns:x="http://ns.adobe.com/Extensibility/1.0/" xmlns:i="http://ns.adobe.com/AdobeIllustrator/10.0/" xmlns:graph="http://ns.adobe.com/Graphs/1.0/" xmlns="http://www.w3.org/2000/svg" xmlns:xlink="http://www.w3.org/1999/xlink" xmlns:a="http://ns.adobe.com/AdobeSVGViewerExtensions/3.0/" version="1.1" x="0px" y="0px" viewBox="0 0 100 100" enable-background="new 0 0 100 100" xml:space="preserve"><metadata><?xpacket begin="&#65279;" id="W5M0MpCehiHzreSzNTczkc9d"?><x:xmpmeta xmlns:x="adobe:ns:meta/" x:xmptk="Adobe XMP Core 5.5-c014 79.151739, 2013/04/03-12:12:15        "/><?xpacket end="w"?></metadata><rect x="31.2434082" y="43.75" width="2.5" height="2.5"/><path d="M23.7434063,47.5c0,6.203125,5.046875,11.25,11.2500019,11.25s11.25-5.046875,11.25-11.25s-5.046875-11.25-11.25-11.25  S23.7434063,41.296875,23.7434063,47.5z M28.7434063,41.25h5.0000019V40h1.25h1.25v1.25h3.75v1.25v1.25h-1.25h-2.5v2.5h5v7.5h-5V55  h-1.25h-1.25v-1.25h-3.7500019V52.5v-1.25h1.25h2.5000019v-2.5h-5.0000019V41.25z"/><rect x="36.2434082" y="48.75" width="2.5" height="2.5"/><path d="M8.8811016,85.765625l5.8544922-1.9516602c1.2490234-0.3129883,2.5546875-0.4511719,3.9018555-0.4511719  c5.2524414,0,11.1464844,2.1020508,16.8862324,4.1489258C40.9152832,89.434082,46.0075684,91.25,50.1311035,91.25  c10.0527344,0,24.2143555-7.9458008,33.2866211-14.75c6.5063477-4.8798828,8.6679688-12.159668,7.3173828-14.0917969  c-0.6108398-0.8735352-2.496582-0.4365234-4.9228516,1.1396484c-7.3911133,4.8051758-17.3657227,6.612793-23.9130859,7.2929688  C63.0710449,71.7949219,63.8811035,73.1401367,63.8811035,75c0,1.4750977-0.5390625,2.765625-1.5595703,3.7329102  c-2.4702148,2.3422852-7.0625,2.1254883-7.2568359,2.1152344c-0.5307617,0.0214844-15.4101563,0.3491211-23.1640644-5.2333984  l0.7305317-1.0147095l0.000061-0.0001221l0.7303467-1.0144653c0.3215942,0.2315674,0.6633911,0.4481812,1.013855,0.6578979  c7.3503418,4.3983154,20.5877686,4.1109619,20.7224731,4.1072388c1.1328125,0.0522461,4.1079102-0.1040039,5.5068359-1.4350586  C61.1271973,76.4189453,61.3811035,75.7919922,61.3811035,75c0-3.6621094-6.1049805-3.7490234-6.25-3.75  c-0.0009766,0-0.0014648,0-0.0019531,0h-6.1122437h-3.8858032c-2.6103516,0-4.1381836-1.6201172-5.6152344-3.1870117  C37.6101074,66.0415039,35.4494629,63.75,30.1311016,63.75c-8.3139648,0-18.6621094,5.515625-21.25,6.9731445V85.765625z"/><rect x="66.2434082" y="53.75" width="2.5" height="2.5"/><rect x="76.2434082" y="26.25" width="2.5" height="2.5"/><path d="M74.9934082,36.25c6.203125,0,11.25-5.046875,11.25-11.25s-5.046875-11.25-11.25-11.25s-11.25,5.046875-11.25,11.25  S68.7902832,36.25,74.9934082,36.25z M68.7434082,18.75h5V17.5h1.25h1.25v1.25h3.75V20v1.25h-1.25h-2.5v2.5h5v7.5h-5v1.25h-1.25  h-1.25v-1.25h-3.75V30v-1.25h1.25h2.5v-2.5h-5V18.75z"/><rect x="41.2434082" y="16.25" width="2.5" height="2.5"/><rect x="46.2434082" y="21.25" width="2.5" height="2.5"/><rect x="71.2434082" y="21.25" width="2.5" height="2.5"/><path d="M44.9934082,8.75c-6.203125,0-11.25,5.046875-11.25,11.25s5.046875,11.25,11.25,11.25s11.25-5.046875,11.25-11.25  S51.1965332,8.75,44.9934082,8.75z M51.2434082,26.25h-5v1.25h-1.25h-1.25v-1.25h-3.75V25v-1.25h1.25h2.5v-2.5h-5v-7.5h5V12.5h1.25  h1.25v1.25h3.75V15v1.25h-1.25h-2.5v2.5h5V26.25z"/><path d="M53.7434082,52.5c0,6.203125,5.046875,11.25,11.25,11.25s11.25-5.046875,11.25-11.25s-5.046875-11.25-11.25-11.25  S53.7434082,46.296875,53.7434082,52.5z M58.7434082,46.25h5V45h1.25h1.25v1.25h3.75v1.25v1.25h-1.25h-2.5v2.5h5v7.5h-5V60h-1.25  h-1.25v-1.25h-3.75V57.5v-1.25h1.25h2.5v-2.5h-5V46.25z"/><rect x="61.2434082" y="48.75" width="2.5" height="2.5"/></svg>