<svg xmlns="http://www.w3.org/2000/svg" xmlns:xlink="http://www.w3.org/1999/xlink" version="1.1" x="0px" y="0px" viewBox="0 0 70 70" enable-background="new 0 0 70 70" xml:space="preserve"><path d="M65.2808228,42.703949V32.5798035c0-16.6962891-13.5830078-30.2797852-30.2792969-30.2797852  S4.722229,15.8835144,4.722229,32.5798035v10.1235962c-1.2376709,0.8505859-2.0522461,2.2713013-2.0522461,3.8865967v0.5900269  c0,2.2662964,1.6003418,4.1588135,3.7299805,4.6190796v0.2409058c0,3.4500122,2.8000488,6.2600098,6.2600098,6.2600098h0.6999512  c1.710083,0,3.1000977-1.3900146,3.1000977-3.1000366V38.5799866c0-1.7199707-1.3900146-3.1099854-3.1000977-3.1099854h-0.6999512  c-2.769043,0-5.111084,1.8017578-5.9377441,4.2889404v-7.1791382c0-15.59375,12.6865234-28.2797852,28.2792969-28.2797852  s28.2792969,12.6860352,28.2792969,28.2797852v7.163147c-0.8337402-2.4787598-3.1757813-4.2729492-5.9309082-4.2729492h-0.6999512  c-1.7099609,0-3.1099854,1.3900146-3.1099854,3.1099854v16.6199951c0,1.710022,1.4000244,3.1000366,3.1099854,3.1000366h0.5179443  c-1.1328125,2.6725464-3.7874756,4.5-6.7698975,4.5h-7.8944092c-0.4449463-1.6641235-1.951416-2.9000244-3.75354-2.9000244  c-2.1401367,0-3.8901367,1.75-3.8901367,3.9000244c0,2.1499634,1.75,3.8999634,3.8901367,3.8999634  c1.802124,0,3.3085938-1.2359009,3.75354-2.8999634h7.8944092c4.2008057,0,7.8902588-2.848999,9.0042725-6.8530884  c2.4447021-0.8529053,4.2076416-3.1763916,4.2076416-5.9069214v-0.2420044  c2.121582-0.4615479,3.7200928-2.3529053,3.7200928-4.617981v-0.5900269  C67.3300171,44.9750061,66.515686,43.5545959,65.2808228,42.703949z"/><text x="0" y="85" fill="#000000" font-size="5px" font-weight="bold" font-family="'Helvetica Neue', Helvetica, Arial-Unicode, Arial, Sans-serif">Created by Vectorstall</text><text x="0" y="90" fill="#000000" font-size="5px" font-weight="bold" font-family="'Helvetica Neue', Helvetica, Arial-Unicode, Arial, Sans-serif">from the Noun Project</text></svg>