<svg xmlns="http://www.w3.org/2000/svg" data-name="Layer 1" viewBox="0 0 56.91 56.91" x="0px" y="0px"><title>63</title><polygon points="8.03 55.87 8.03 39.87 21.18 46.52 21.27 46.56 29.05 42.2 36.39 46.51 36.47 46.56 48.89 39.87 48.89 55.87 28.46 64.05 8.03 55.87"/><path d="M318.46,1484.78l-20.22-10.45-4.64,2.41v2h1l3.6-1.87,15.38,7.94-5.63,2.9-11.27-5.82L290,1493.48l-6.71-11.62L272,1487.68l-5.63-2.9,15.38-7.94,3.6,1.87h1v-2l-4.64-2.41-20.22,10.45,8.24,4.26-8.24,4.26,7.93,4.09,0.1,0.06,13.22,6.7,7.8-4.37,0.08,0.06,7.35,4.3,12.49-6.74h0l7.94-4.09-8.24-4.26Zm-36.7,16.45-15.38-7.93,5.63-2.92,15.36,7.94Zm31.86-7.93-15.38,7.93-5.62-2.9,15.36-7.94Z" transform="translate(-261.54 -1457.97)"/><path d="M295.76,1481.38l-5.76,10-5.76-10,3.11-1.61h0.11V1460.5a2.53,2.53,0,0,1,5.07,0v19.27h0.11Z" transform="translate(-261.54 -1457.97)"/><text x="0" y="79.05" fill="#000000" font-size="5px" font-weight="bold" font-family="'Helvetica Neue', Helvetica, Arial-Unicode, Arial, Sans-serif">Created by Andy Miranda</text><text x="0" y="84.05" fill="#000000" font-size="5px" font-weight="bold" font-family="'Helvetica Neue', Helvetica, Arial-Unicode, Arial, Sans-serif">from the Noun Project</text></svg>